<svg width="116" height="82" viewBox="0 0 116 82" fill="none" xmlns="http://www.w3.org/2000/svg">
<g clip-path="url(#clip0_612_1846)">
<path d="M108.664 9.11096H81.1549C80.3062 9.11096 79.4923 9.4481 78.8922 10.0482C78.2921 10.6483 77.9549 11.4623 77.9549 12.311V25.956C77.9549 26.8047 78.2921 27.6186 78.8922 28.2187C79.4923 28.8188 80.3062 29.156 81.1549 29.156H108.665C109.241 29.1557 109.806 29 110.301 28.7052C110.796 28.4104 111.202 27.9874 111.477 27.481L115.177 20.659C115.431 20.1906 115.564 19.6663 115.564 19.1335C115.564 18.6007 115.431 18.0763 115.177 17.608L111.477 10.786C111.202 10.2794 110.796 9.8563 110.301 9.56148C109.806 9.26666 109.24 9.11101 108.664 9.11096Z" fill="url(#paint0_linear_612_1846)"/>
<path d="M108.665 9.11096H87.0149V29.156H108.665C109.241 29.1559 109.807 29.0003 110.302 28.7054C110.797 28.4106 111.203 27.9876 111.478 27.481L115.178 20.659C115.432 20.1906 115.565 19.6663 115.565 19.1335C115.565 18.6007 115.432 18.0763 115.178 17.608L111.478 10.786C111.203 10.2794 110.797 9.8563 110.302 9.56148C109.807 9.26666 109.241 9.11101 108.665 9.11096Z" fill="url(#paint1_linear_612_1846)"/>
<path d="M49.0648 36.444H81.0978C81.518 36.444 81.9341 36.5267 82.3223 36.6876C82.7106 36.8484 83.0634 37.0841 83.3605 37.3812C83.6576 37.6784 83.8934 38.0311 84.0542 38.4194C84.215 38.8076 84.2978 39.2237 84.2978 39.644V53.29C84.2978 53.7102 84.215 54.1263 84.0542 54.5146C83.8934 54.9028 83.6576 55.2556 83.3605 55.5527C83.0634 55.8499 82.7106 56.0856 82.3223 56.2464C81.9341 56.4072 81.518 56.49 81.0978 56.49H49.0518C48.4771 56.4901 47.913 56.3354 47.4187 56.0423C46.9244 55.7491 46.5182 55.3283 46.2428 54.824L42.5498 48.065C42.2942 47.5974 42.1595 47.0735 42.1577 46.5407C42.156 46.0079 42.2873 45.4832 42.5398 45.014L46.2478 38.128C46.5215 37.6191 46.9279 37.1938 47.4239 36.8973C47.9199 36.6008 48.4869 36.4442 49.0648 36.444Z" fill="url(#paint2_linear_612_1846)"/>
<path d="M49.0648 36.444H67.9898V56.49H49.0518C48.4771 56.4901 47.913 56.3354 47.4187 56.0423C46.9244 55.7491 46.5182 55.3283 46.2428 54.824L42.5498 48.065C42.2942 47.5974 42.1595 47.0735 42.1577 46.5407C42.156 46.0079 42.2873 45.4832 42.5398 45.014L46.2478 38.128C46.5215 37.6191 46.9279 37.1938 47.4239 36.8973C47.9199 36.6008 48.4869 36.4442 49.0648 36.444Z" fill="url(#paint3_linear_612_1846)"/>
<path d="M82.6968 0H73.2138C72.3301 0 71.6138 0.716344 71.6138 1.6V80.4C71.6138 81.2837 72.3301 82 73.2138 82H82.6968C83.5804 82 84.2968 81.2837 84.2968 80.4V1.6C84.2968 0.716344 83.5804 0 82.6968 0Z" fill="url(#paint4_linear_612_1846)"/>
<path fill-rule="evenodd" clip-rule="evenodd" d="M73.2138 0H79.0738C79.2839 0 79.4919 0.0413852 79.6861 0.121793C79.8802 0.2022 80.0566 0.320055 80.2051 0.468629C80.3537 0.617203 80.4716 0.793586 80.552 0.987706C80.6324 1.18183 80.6738 1.38989 80.6738 1.6V80.4C80.6738 80.6101 80.6324 80.8182 80.552 81.0123C80.4716 81.2064 80.3537 81.3828 80.2051 81.5314C80.0566 81.6799 79.8802 81.7978 79.6861 81.8782C79.4919 81.9586 79.2839 82 79.0738 82H73.2138C72.7894 82 72.3825 81.8314 72.0824 81.5314C71.7823 81.2313 71.6138 80.8243 71.6138 80.4V1.6C71.6138 1.17565 71.7823 0.768687 72.0824 0.468629C72.3825 0.168571 72.7894 0 73.2138 0V0Z" fill="url(#paint5_linear_612_1846)"/>
<path d="M97.1917 69.244H58.7187C57.835 69.244 57.1187 69.9604 57.1187 70.844V80.4C57.1187 81.2837 57.835 82 58.7187 82H97.1917C98.0753 82 98.7917 81.2837 98.7917 80.4V70.844C98.7917 69.9604 98.0753 69.244 97.1917 69.244Z" fill="url(#paint6_linear_612_1846)"/>
<path fill-rule="evenodd" clip-rule="evenodd" d="M58.7177 69.244H93.5677C93.992 69.244 94.399 69.4126 94.699 69.7126C94.9991 70.0127 95.1677 70.4197 95.1677 70.844V80.4C95.1677 80.8244 94.9991 81.2313 94.699 81.5314C94.399 81.8314 93.992 82 93.5677 82H58.7177C58.2933 82 57.8864 81.8314 57.5863 81.5314C57.2862 81.2313 57.1177 80.8244 57.1177 80.4V70.844C57.1177 70.4197 57.2862 70.0127 57.5863 69.7126C57.8864 69.4126 58.2933 69.244 58.7177 69.244Z" fill="url(#paint7_linear_612_1846)"/>
<path d="M0.803914 38.8V29.512H18.1559V82H7.78791V38.8H0.803914Z" fill="white"/>
</g>
<defs>
<linearGradient id="paint0_linear_612_1846" x1="115.564" y1="20.3161" x2="84.813" y2="20.3161" gradientUnits="userSpaceOnUse">
<stop stop-color="#FEDF00"/>
<stop offset="1" stop-color="#FCB100"/>
</linearGradient>
<linearGradient id="paint1_linear_612_1846" x1="113.871" y1="7.22513" x2="99.5599" y2="31.3342" gradientUnits="userSpaceOnUse">
<stop stop-color="#FEDF00"/>
<stop offset="1" stop-color="#FCBC00"/>
</linearGradient>
<linearGradient id="paint2_linear_612_1846" x1="42.1577" y1="47.6497" x2="70.1336" y2="47.6497" gradientUnits="userSpaceOnUse">
<stop stop-color="#FEDF00"/>
<stop offset="1" stop-color="#FCB100"/>
</linearGradient>
<linearGradient id="paint3_linear_612_1846" x1="43.6903" y1="34.558" x2="58.6453" y2="57.352" gradientUnits="userSpaceOnUse">
<stop stop-color="#FEDF00"/>
<stop offset="1" stop-color="#FCBC00"/>
</linearGradient>
<linearGradient id="paint4_linear_612_1846" x1="79.057" y1="75.8828" x2="79.057" y2="10.0557" gradientUnits="userSpaceOnUse">
<stop stop-color="#4289FF"/>
<stop offset="1" stop-color="#7BADFF"/>
</linearGradient>
<linearGradient id="paint5_linear_612_1846" x1="68.6367" y1="92.4509" x2="82.8692" y2="91.3243" gradientUnits="userSpaceOnUse">
<stop stop-color="#4289FF"/>
<stop offset="1" stop-color="#7BADFF"/>
</linearGradient>
<linearGradient id="paint6_linear_612_1846" x1="88.9277" y1="81.2755" x2="88.9277" y2="71.1468" gradientUnits="userSpaceOnUse">
<stop stop-color="#4289FF"/>
<stop offset="1" stop-color="#7BADFF"/>
</linearGradient>
<linearGradient id="paint7_linear_612_1846" x1="78.9999" y1="91.621" x2="78.9999" y2="72.9365" gradientUnits="userSpaceOnUse">
<stop stop-color="#4289FF"/>
<stop offset="1" stop-color="#7BADFF"/>
</linearGradient>
<clipPath id="clip0_612_1846">
<rect width="116" height="82" fill="white"/>
</clipPath>
</defs>
</svg>
