<svg width="121" height="82" viewBox="0 0 121 82" fill="none" xmlns="http://www.w3.org/2000/svg">
<path d="M4.31994 70.624C8.92794 66.784 12.5999 63.592 15.3359 61.048C18.0719 58.456 20.3519 55.768 22.1759 52.984C23.9999 50.2 24.9119 47.464 24.9119 44.776C24.9119 42.328 24.3359 40.408 23.1839 39.016C22.0319 37.624 20.2559 36.928 17.8559 36.928C15.4559 36.928 13.6079 37.744 12.3119 39.376C11.0159 40.96 10.3439 43.144 10.2959 45.928H0.503938C0.695938 40.168 2.39994 35.8 5.61594 32.824C8.87994 29.848 13.0079 28.36 17.9999 28.36C23.4719 28.36 27.6719 29.824 30.5999 32.752C33.5279 35.632 34.9919 39.448 34.9919 44.2C34.9919 47.944 33.9839 51.52 31.9679 54.928C29.9519 58.336 27.6479 61.312 25.0559 63.856C22.4639 66.352 19.0799 69.376 14.9039 72.928H36.1439V81.28H0.575938V73.792L4.31994 70.624Z" fill="white"/>
<path d="M96.2665 81.1314H89.6278C88.7472 81.1314 88.0386 80.4197 88.0386 79.5353V43.7717H98.3854V79.0033C98.3854 80.1779 97.4361 81.1314 96.2665 81.1314Z" fill="url(#paint0_linear_612_1860)"/>
<path d="M96.858 81.1314H92.6064V43.7717H98.3853V79.5975C98.3853 80.4474 97.7042 81.1314 96.858 81.1314Z" fill="#79AAFB"/>
<path d="M74.8712 9.43835H107.983C115.385 9.43835 121.377 15.4634 121.377 22.8912V46.5355C121.377 47.0813 120.937 47.5235 120.393 47.5235H62.261C62.199 47.5235 62.1509 47.4752 62.1509 47.413V22.2071C62.1509 15.1525 67.8472 9.43835 74.8712 9.43835Z" fill="url(#paint1_linear_612_1860)"/>
<path opacity="0.07" d="M78.9645 14.6343H103.992C111.395 14.6343 117.387 20.6594 117.387 28.0871V46.5285C117.387 47.0744 116.947 47.5166 116.403 47.5166H66.3542C66.2923 47.5166 66.2441 47.4682 66.2441 47.406V27.4099C66.2441 20.3553 71.9404 14.6343 78.9645 14.6343Z" fill="#EDF1F7"/>
<path opacity="0.65" d="M120.276 47.641H83.7046V44.4972H121.384V46.5286C121.377 47.1435 120.882 47.641 120.276 47.641Z" fill="#5264A8"/>
<path d="M120.276 47.641H83.7046V44.4972H121.384V46.5286C121.377 47.1435 120.882 47.641 120.276 47.641Z" fill="url(#paint2_linear_612_1860)"/>
<path d="M120.545 47.5235H103.896V44.5939H121.377V46.6874C121.377 47.1435 121.005 47.5235 120.545 47.5235Z" fill="url(#paint3_linear_612_1860)"/>
<path opacity="0.07" d="M121.377 22.981H85.5068V44.5041H121.377V22.981Z" fill="#373448"/>
<path d="M84.0623 46.6736H63.5956C62.7976 46.6736 62.1509 46.0241 62.1509 45.2226V21.8892C62.1509 15.415 67.3794 10.1638 73.8255 10.1638C80.2717 10.1638 85.5001 15.415 85.5001 21.8892V45.2226C85.507 46.0241 84.8603 46.6736 84.0623 46.6736Z" fill="url(#paint4_linear_612_1860)"/>
<path d="M83.8217 46.6737H63.355V22.1311C63.355 16.4584 67.9368 11.8567 73.5849 11.8567C79.233 11.8567 83.8148 16.4584 83.8148 22.1311V46.6737H83.8217Z" fill="#373448"/>
<g clip-path="url(#clip0_612_1860)">
<path d="M83.9332 43.8334H67.7109C67.1249 43.8334 66.6509 43.3323 66.6509 42.7129V32.3989C66.6509 31.6264 67.2434 31 67.9742 31H83.3933C84.2821 31 84.9998 31.7586 84.9998 32.6981V42.7199C84.9998 43.3323 84.5191 43.8334 83.9332 43.8334Z" fill="white"/>
<path opacity="0.56" d="M84.1639 43.8335H75.8223H67.4807C67.0198 43.8335 66.6445 43.4368 66.6445 42.9497V32.225C66.6445 32.0928 66.6906 31.9675 66.7696 31.8631C66.8684 31.7448 67.033 31.7309 67.1449 31.8283L73.5245 37.4099L74.8413 38.5652C75.4075 39.0593 76.2239 39.0523 76.7769 38.5512L84.605 31.5221C85.0922 32.0162 84.9868 32.5104 84.9868 32.5104V42.9497C85 43.4438 84.6247 43.8335 84.1639 43.8335Z" fill="#E8E8E8"/>
<path d="M67.033 43.9449C66.9672 43.9449 66.9079 43.9171 66.8619 43.8614C66.7763 43.764 66.7828 43.6039 66.8816 43.5204L73.7616 37.048C73.8538 36.9575 74.0052 36.9645 74.0842 37.0689C74.1698 37.1663 74.1632 37.3264 74.0645 37.4099L67.1845 43.8823C67.1384 43.924 67.0857 43.9449 67.033 43.9449Z" fill="white"/>
<path d="M84.3681 43.9447C84.3154 43.9447 84.2561 43.9238 84.2166 43.882L77.5341 37.6184C77.442 37.528 77.4288 37.3749 77.5144 37.2774C77.6 37.18 77.7448 37.1661 77.837 37.2566L84.5195 43.5201C84.6117 43.6106 84.6248 43.7637 84.5392 43.8612C84.4932 43.9168 84.4273 43.9447 84.3681 43.9447Z" fill="white"/>
<path d="M83.9425 47H65V45.8099C65 44.7172 65.8704 43.8334 66.9463 43.8334H83.9425V47Z" fill="url(#paint5_linear_612_1860)"/>
</g>
<path d="M83.2433 51.0267H48.8454C47.5521 51.0267 46.4995 49.9695 46.4995 48.6706V46.6737H85.9813V48.2698C85.9882 49.7899 84.7568 51.0267 83.2433 51.0267Z" fill="#4A8EFF"/>
<path d="M83.243 51.0267H72.4421C71.1488 51.0267 70.0962 49.9695 70.0962 48.6706V46.6737H85.988V48.2698C85.988 49.7899 84.7566 51.0267 83.243 51.0267Z" fill="#79AAFB"/>
<path d="M95.9774 20.5005V2.18343C95.9774 1.5823 95.489 1.09863 94.8973 1.09863C94.3057 1.09863 93.8172 1.58921 93.8172 2.18343V20.5005C92.4895 20.9565 91.5332 22.2141 91.5332 23.7065C91.5332 25.579 93.0398 27.0922 94.9042 27.0922C96.7686 27.0922 98.2752 25.579 98.2752 23.7065C98.2683 22.2141 97.312 20.9496 95.9774 20.5005Z" fill="url(#paint6_linear_612_1860)"/>
<path d="M96.3423 7.42088V2.18347H106.221L96.3423 7.42088Z" fill="#6668A9"/>
<path d="M96.3423 7.42088V2.18347H106.221L96.3423 7.42088Z" fill="#FED200"/>
<path d="M96.4592 21.0118V2.18343C96.4592 1.5823 95.9708 1.09863 95.3791 1.09863C94.7806 1.09863 94.299 1.58921 94.299 2.18343V21.0118C93.2396 21.4402 92.4966 22.4835 92.4966 23.6996C92.4966 25.3026 93.7899 26.6016 95.386 26.6016C96.9821 26.6016 98.2754 25.3026 98.2754 23.6996C98.2685 22.4835 97.5187 21.4471 96.4592 21.0118Z" fill="#FED200"/>
<path d="M95.3788 25.3925C94.4156 25.3925 93.6313 24.6048 93.6313 23.6375C93.6313 22.6701 94.4156 21.8824 95.3788 21.8824C96.3419 21.8824 97.1262 22.6701 97.1262 23.6375C97.1193 24.6117 96.3419 25.3925 95.3788 25.3925ZM95.3788 22.1312C94.5463 22.1312 93.8721 22.8083 93.8721 23.6444C93.8721 24.4804 94.5463 25.1575 95.3788 25.1575C96.2112 25.1575 96.8854 24.4804 96.8854 23.6444C96.8785 22.8083 96.2043 22.1312 95.3788 22.1312Z" fill="#F4AE00"/>
<defs>
<linearGradient id="paint0_linear_612_1860" x1="93.2107" y1="43.773" x2="93.2107" y2="81.1318" gradientUnits="userSpaceOnUse">
<stop stop-color="#79AAFB"/>
<stop offset="1" stop-color="#4A8EFF"/>
</linearGradient>
<linearGradient id="paint1_linear_612_1860" x1="91.7663" y1="47.5209" x2="91.7663" y2="9.43677" gradientUnits="userSpaceOnUse">
<stop stop-color="#79AAFB"/>
<stop offset="1" stop-color="#4A8EFF"/>
</linearGradient>
<linearGradient id="paint2_linear_612_1860" x1="121.379" y1="46.0701" x2="83.7009" y2="46.0701" gradientUnits="userSpaceOnUse">
<stop stop-color="#79AAFB"/>
<stop offset="1" stop-color="#4A8EFF"/>
</linearGradient>
<linearGradient id="paint3_linear_612_1860" x1="103.896" y1="46.0559" x2="121.379" y2="46.0559" gradientUnits="userSpaceOnUse">
<stop stop-color="#79AAFB"/>
<stop offset="1" stop-color="#4A8EFF"/>
</linearGradient>
<linearGradient id="paint4_linear_612_1860" x1="73.8299" y1="10.1622" x2="73.8299" y2="46.6746" gradientUnits="userSpaceOnUse">
<stop stop-color="#79AAFB"/>
<stop offset="1" stop-color="#4A8EFF"/>
</linearGradient>
<linearGradient id="paint5_linear_612_1860" x1="74.4721" y1="43.8347" x2="74.4721" y2="47.0009" gradientUnits="userSpaceOnUse">
<stop stop-color="#FED200"/>
<stop offset="1" stop-color="#EBA700"/>
</linearGradient>
<linearGradient id="paint6_linear_612_1860" x1="94.8958" y1="1.09458" x2="94.8958" y2="27.0885" gradientUnits="userSpaceOnUse">
<stop stop-color="#FED200"/>
<stop offset="1" stop-color="#EBA700"/>
</linearGradient>
<clipPath id="clip0_612_1860">
<rect width="19" height="17" fill="white" transform="translate(65 30)"/>
</clipPath>
</defs>
</svg>
