<svg width="120" height="70" viewBox="0 0 120 70" fill="none" xmlns="http://www.w3.org/2000/svg">
<g clip-path="url(#clip0_612_1892)">
<path d="M1.39604 30.336C1.63604 25.536 3.31604 21.84 6.43604 19.248C9.60404 16.608 13.756 15.288 18.892 15.288C22.396 15.288 25.396 15.912 27.892 17.16C30.388 18.36 32.26 20.016 33.508 22.128C34.804 24.192 35.452 26.544 35.452 29.184C35.452 32.208 34.66 34.776 33.076 36.888C31.54 38.952 29.692 40.344 27.532 41.064V41.352C30.316 42.216 32.476 43.752 34.012 45.96C35.596 48.168 36.388 51 36.388 54.456C36.388 57.336 35.716 59.904 34.372 62.16C33.076 64.416 31.132 66.192 28.54 67.488C25.996 68.736 22.924 69.36 19.324 69.36C13.9 69.36 9.48404 67.992 6.07604 65.256C2.66804 62.52 0.868035 58.488 0.676035 53.16H10.468C10.564 55.512 11.356 57.408 12.844 58.848C14.38 60.24 16.468 60.936 19.108 60.936C21.556 60.936 23.428 60.264 24.724 58.92C26.068 57.528 26.74 55.752 26.74 53.592C26.74 50.712 25.828 48.648 24.004 47.4C22.18 46.152 19.348 45.528 15.508 45.528H13.42V37.248H15.508C22.324 37.248 25.732 34.968 25.732 30.408C25.732 28.344 25.108 26.736 23.86 25.584C22.66 24.432 20.908 23.856 18.604 23.856C16.348 23.856 14.596 24.48 13.348 25.728C12.148 26.928 11.452 28.464 11.26 30.336H1.39604Z" fill="white"/>
<path d="M59.3821 0.795044H92.0821L94.1901 1.69504L112.512 20.009L113.455 22.094V66.004C113.455 66.4243 113.372 66.8404 113.212 67.2286C113.051 67.6169 112.815 67.9696 112.518 68.2668C112.221 68.5639 111.868 68.7996 111.48 68.9605C111.091 69.1213 110.675 69.204 110.255 69.204H59.3821C58.5334 69.204 57.7195 68.8669 57.1194 68.2668C56.5193 67.6667 56.1821 66.8527 56.1821 66.004V3.99504C56.1821 3.14635 56.5193 2.33242 57.1194 1.7323C57.7195 1.13219 58.5334 0.795044 59.3821 0.795044V0.795044Z" fill="url(#paint0_linear_612_1892)"/>
<path d="M59.3821 0.795044H91.9591C92.8078 0.795044 93.6218 1.13219 94.2219 1.7323C94.822 2.33242 95.1591 3.14635 95.1591 3.99504V15.89C95.1591 16.7387 95.4963 17.5527 96.0964 18.1528C96.6965 18.7529 97.5104 19.09 98.3591 19.09H110.255C111.104 19.09 111.918 19.4272 112.518 20.0273C113.118 20.6274 113.455 21.4414 113.455 22.29V66.005C113.455 66.8537 113.118 67.6677 112.518 68.2678C111.918 68.8679 111.104 69.205 110.255 69.205H59.3821C58.5334 69.205 57.7195 68.8679 57.1194 68.2678C56.5193 67.6677 56.1821 66.8537 56.1821 66.005V3.99504C56.1821 3.14635 56.5193 2.33242 57.1194 1.7323C57.7195 1.13219 58.5334 0.795044 59.3821 0.795044V0.795044Z" fill="url(#paint1_linear_612_1892)"/>
<path fill-rule="evenodd" clip-rule="evenodd" d="M62.5459 7.15906H95.1699V15.9331C95.1699 16.7818 95.507 17.5957 96.1072 18.1958C96.7073 18.7959 97.5212 19.1331 98.3699 19.1331H107.091V62.8401H62.5459V7.15906Z" fill="white"/>
<path fill-rule="evenodd" clip-rule="evenodd" d="M66.522 14.318H88V19.09H66.523L66.522 14.318ZM66.522 23.068H103.114V27.84H66.522V23.068ZM66.522 31.818H103.114V36.59H66.522V31.818ZM66.522 40.568H103.114V45.34H66.522V40.568ZM66.522 49.318H103.114V54.09H66.522V49.318Z" fill="url(#paint2_linear_612_1892)"/>
<path d="M109.08 69.2041C115.011 69.2041 119.819 64.3961 119.819 58.4651C119.819 52.5341 115.011 47.7261 109.08 47.7261C103.149 47.7261 98.3413 52.5341 98.3413 58.4651C98.3413 64.3961 103.149 69.2041 109.08 69.2041Z" fill="url(#paint3_linear_612_1892)"/>
<path d="M112.39 54.5621C112.484 54.4353 112.602 54.3285 112.738 54.2477C112.873 54.167 113.024 54.1139 113.18 54.0916C113.336 54.0694 113.495 54.0783 113.648 54.118C113.801 54.1576 113.944 54.2272 114.07 54.3226C114.195 54.4181 114.301 54.5375 114.38 54.674C114.459 54.8106 114.511 54.9614 114.531 55.1179C114.552 55.2744 114.541 55.4334 114.499 55.5857C114.458 55.738 114.387 55.8805 114.29 56.0051L109.517 62.2911C109.106 62.8321 108.327 62.9211 107.804 62.4871L104.34 59.6071C104.219 59.5072 104.118 59.3844 104.044 59.2456C103.971 59.1068 103.925 58.9548 103.91 58.7983C103.895 58.6419 103.912 58.484 103.958 58.3338C104.004 58.1836 104.08 58.0441 104.18 57.9232C104.281 57.8023 104.404 57.7025 104.543 57.6294C104.682 57.5564 104.835 57.5116 104.991 57.4975C105.148 57.4835 105.306 57.5005 105.455 57.5476C105.605 57.5947 105.745 57.671 105.865 57.7721L108.371 59.8551L112.39 54.5621Z" fill="white"/>
</g>
<defs>
<linearGradient id="paint0_linear_612_1892" x1="69.8973" y1="48.0869" x2="101.966" y2="22.3212" gradientUnits="userSpaceOnUse">
<stop stop-color="#FEDF00"/>
<stop offset="1" stop-color="#FCBC00"/>
</linearGradient>
<linearGradient id="paint1_linear_612_1892" x1="59.5801" y1="-5.64097" x2="115.214" y2="49.4488" gradientUnits="userSpaceOnUse">
<stop stop-color="#FEDF00"/>
<stop offset="1" stop-color="#FCBC00"/>
</linearGradient>
<linearGradient id="paint2_linear_612_1892" x1="54.4982" y1="59.1589" x2="85.1074" y2="36.6939" gradientUnits="userSpaceOnUse">
<stop stop-color="#D7DADD"/>
<stop offset="1" stop-color="#EFF0F2"/>
</linearGradient>
<linearGradient id="paint3_linear_612_1892" x1="91.2839" y1="71.9414" x2="113.72" y2="55.8677" gradientUnits="userSpaceOnUse">
<stop stop-color="#4289FF"/>
<stop offset="1" stop-color="#7BADFF"/>
</linearGradient>
<clipPath id="clip0_612_1892">
<rect width="120" height="70" fill="white"/>
</clipPath>
</defs>
</svg>
